/* XPM */
static char *_8cec1b16eb042b89939974d08c021cak3rkT8qkjp2p7dUq[] = {
/* columns rows colors chars-per-pixel */
"50 50 7 1 ",
"  c None",
". c #2D2D2D",
"X c #646464",
"o c DimGray",
"O c gray55",
"+ c #A7A7A7",
"@ c #D5D5D5",
/* pixels */
"                                                  ",
"                                                  ",
"      ......................................      ",
"      ......................................      ",
"      ..@@@@@@@@@@@@@@@@@@@@@@@@@@O       ..      ",
"      ..@@@@@@@@@@@@@@@@@@@@@@@@@@O       ..      ",
"      ..@@@@@@@@@@@@@@@@@@@@@@@@@@O       ..      ",
"      ..@@@@@@@@@@@@@@@@@@@@@@@@@@O       ..      ",
"      ..@@@@@@@@@@@@@@@@@@@@@@@@@@O       ..      ",
"      ..@@@@@@@@@@@@@@@@@@@@@@@@@@O       ..      ",
"      ..@@@@@@@@@@@@@@@@@@@@@@@@@@O       ..      ",
"      ..@@@@@@@@@@@@@@@@@@@@@@@@@@O       ..      ",
"      ..@@@@@@@@@@@@@@@@@@@@@@@@@@O       ..      ",
"      ..@@@@@@@@@@@@@@@@@@@@@@@@@@O       ..      ",
"      ..@@@@@@@@@@@@@@@@@@@@@@@@@@O       ..      ",
"      ..@@@@@@@@@@@@@@@@@@@@@@@@@@O       ..      ",
"      ..@@@@@@@@@@@@@@@@@@@@@@@@@@O       ..      ",
"      ..@@@@@@@@@@@@@@@@@@@@@@@@@@O       ..      ",
"      ..@@@@@@@@@@@@@@@@@@@@@@@@@@O       ..      ",
"      ..@@@@@@@@@@@@@@@@@@@@@@@@@@O       ..      ",
"      ..@@@@@@@@@@@@@@@@@@@@@@X.@@O       ..      ",
"      ..@@@@@@@@@@@@@@@@@@@@@@X.@@O       ..      ",
"      ..@@@@@@@@@@@@@@@@@@@@@@X.@@O       ..      ",
"      ..@@@@@@@@@@@@@@@@@@@@@@X.@@O       ..      ",
"      ..@@@@@@@@@@@@@@@@@@@@@@X.@@O       ..      ",
"      ..@@@@@@@@@@@@@@@@@@@@@@@@@@O       ..      ",
"      ..@@@@@@@@@@@@@@@@@@@@@@@@@@O       ..      ",
"      ..@@@@@@@@@@@@@@@@@@@@@@@@@@O       ..      ",
"      ..@@@@@@@@@@@@@@@@@@@@@@@@@@O       ..      ",
"      ..@@@@@@@@@@@@@@@@@@@@@@@@@@O       ..      ",
"      ..@@@@@@@@@@@@@@@@@@@@@@@@@@O       ..      ",
"      ..@@@@@@@@@@@OOOOO@@@@@@@@@@O       ..      ",
"      ..@@@@@@@@@@OOoooo@@@@@@@@@@O       ..      ",
"      ..@@@@@@@@@@ooo+++@@@@@@@@@@O       ..      ",
"      ..@@@@@@@@@@++++@@@@@@@@@@@@O       ..      ",
"      ..@@@@@@@@@@@@@@@@@@@@@@@@@@O       ..      ",
"      ..@@@@@@@@@@@@@@@@@@@@@@@@@@O       ..      ",
"      ..@@@@@@@@@@@@@@@@@@@@@@@@@@O       ..      ",
"      ..@@@@@@@@@@@@@@@@@@@@@@@@@@+       ..      ",
"      ..@@@@@@@@@@@@@@@@@@@@@@@@++        ..      ",
"      ..@@@@@@@@@@@@@@@@@@@@@@@+          ..      ",
"      ..@@@@@@@@@@@@@@@@@@@++++           ..      ",
"      ..@@@@@@@@@@@@@@@@+++               ..      ",
"      ..@@@@@@@@@@@@@+++                  ..      ",
"      ..@@@@@@@@@@+++                     ..      ",
"      ..@@@@@@@+++                        ..      ",
"      ..@@@@+++                           ..      ",
"      ..@@++                              ..      ",
"      ..++                                ..      ",
"      ..                                  ..      "
};
