/* XPM */
static char *c4fc698681ed49849878f97aa1965105kZoCeVJJgPE407kK[] = {
/* columns rows colors chars-per-pixel */
"50 50 11 1 ",
"  c None",
". c #2D2D2D",
"X c #646464",
"o c #656565",
"O c DimGray",
"+ c gray55",
"@ c #8D8D8D",
"# c #A7A7A7",
"$ c gray78",
"% c #CBCBCB",
"& c #D5D5D5",
/* pixels */
"                                                  ",
"                                                  ",
"      ......................................      ",
"      ......................................      ",
"      ..&&&&&&&&&&&&&&&&&&&&&&&&&&&&&&&&&&..      ",
"      ..&&&&&&&&&&&&&&&&&&&&&&&&&&&&&&&&&&..      ",
"      ..&&&&&&&&&&&&&&&&&&&&&&&&&&&&&&&&&&..      ",
"      ..&&&&&&&&&&&&&&&&&&&&&&&&&&&&&&&&&&..      ",
"      ..&&&&&&&&&&&&&&&&&&&&&&&&&&&&&&&&&&..      ",
"      ..&&&&&&&&&&&&&&&&&&&&&&&&&&&&&&&&&&..      ",
"      ..&&&&&&&&&&&&&&&&&&&&&&&&&&&&&&&&&&..      ",
"      ..&&&&&&&&&&&&&&&&&&&&&&&&&&&&&&&&&&..      ",
"      ..&&&&&&&&&&&&&&&&&&&&&&&&&&&&&&&&&&..      ",
"      ..&&&&&&&&&&&&&&&&&&&&&&&&&&&&&&&&&&..      ",
"      ..&&&&&&&&&&&&&&&&&&&&&&&&&&&&&&&&&&..      ",
"      ..&&&&&&&&&&&&&&&&&&&&&&&&&&&&&&&&&&..      ",
"      ..&&&&&&&&&&&&&&&&&&&&&&&&&&&&&&&&&&..      ",
"      ..&&&&&&&&&&&&&&&&&&&&&&&&&&&&&&&&&&..      ",
"      ..&&&&&&&&&&&&&&&&&&&&&&&&&&&&&&&&&&..      ",
"      ..&&&&&&&&&&&&&&&&&&&&&&&&&&&&&&&&&&..      ",
"      ..&&&&&&&&&&&&&&&&&&&&&&&&&&&&&&&&&&..      ",
"      ..&&&&&&&&&&&&&&&&&&&&&&&&&&&&&&&&&&..      ",
"      ..&&&&&&&&&&&&&&&&&&&&&&&&&%$&&&&&&&..      ",
"      ..&&&&&&&&&&&&&&&&&&&&&&&&&X.&&&&&&&..      ",
"      ..&&&&&&&&&&&&&&&&&&&&&&&&&X.&&&&&&&..      ",
"      ..&&&&&&&&&&&&&&&&&&&&&&&&&o.&&&&&&&..      ",
"      ..&&&&&&&&&&&&&&&&&&&&&&&&&X.&&&&&&&..      ",
"      ..&&&&&&&&&&&&&&&&&&&&&&&&&o.&&&&&&&..      ",
"      ..&&&&&&&&&&&&&&&&&&&&&&&&&o.&&&&&&&..      ",
"      ..&&&&&&&&&&&&&&&&&&&&&&&&&&&&&&&&&&..      ",
"      ..&&&&&&&&&&&&&&&&&&&&&&&&&&&&&&&&&&..      ",
"      ..&&&&&&&&&&&&&&&&&&&&&&&&&&&&&&&&&&..      ",
"      ..&&&&&&&&&&&&&&&&&&&&&&&&&&&&&&&&&&..      ",
"      ..&&&&&&&&&&&++++++++++++&&&&&&&&&&&..      ",
"      ..&&&&&&&&&&&OOOOOOOOOOOO&&&&&&&&&&&..      ",
"      ..&&&&&&&&&&&############&&&&&&&&&&&..      ",
"      ..&&&&&&&&&&&&&&&&&&&&&&&&&&&&&&&&&&..      ",
"      ..&&&&&&&&&&&&&&&&&&&&&&&&&&&&&&&&&&..      ",
"      ..&&&&&&&&&&&&&&&&&&&&&&&&&&&&&&&&&&..      ",
"      ..&&&&&&&&&&&&&&&&&&&&&&&&&&&&&&&&&&..      ",
"      ..&&&&&&&&&&&&&&&&&&&&&&&&&&&&&&&&&&..      ",
"      ..&&&&&&&&&&&&&&&&&&&&&&&&&&&&&&&&&&..      ",
"      ..&&&&&&&&&&&&&&&&&&&&&&&&&&&&&&&&&&..      ",
"      ..&&&&&&&&&&&&&&&&&&&&&&&&&&&&&&&&&&..      ",
"      ..&&&&&&&&&&&&&&&&&&&&&&&&&&&&&&&&&&..      ",
"      ..&&&&&&&&&&&&&&&&&&&&&&&&&&&&&&&&&&..      ",
"      ..&&&&&&&&&&&&&&&&&&&&&&&&&&&&&&&&&&..      ",
"      ..&&&&&&&&&&&&&&&&&&&&&&&&&&&&&&&&&&..      ",
"      ..&&&&&&&&&&&&&&&&&&&&&&&&&&&&&&&&&&..      ",
"      ..&&&&&&&&&&&&&&&&&&&&&&&&&&&&&&&&&&..      "
};
