/* XPM */
static char *_cf802fbbc544e6ddc322a6ac9a5cfc56SbyqybsMYLsw8Hj[] = {
/* columns rows colors chars-per-pixel */
"50 50 3 1 ",
"  c #8A9F59",
". c #8CA457",
"X c #8BA158",
/* pixels */
" .   .   .   .   .   .   .   .   .   .   .   .   .",
"                                                  ",
"                                                  ",
" X   X   X   X   X   X   X   X   X   X   X   X   .",
"                                                  ",
"                                                  ",
"                                                  ",
" X   X   X   X   X   X   X   X   X   X   X   X   .",
"                                                  ",
"                                                  ",
"                                                  ",
" X   X   X   X   X   X   X   X   X   X   X   X   .",
"                                                  ",
"                                                  ",
"       X                                          ",
" X   X   X   X   X   X   X   X   X   X   X   X   .",
"                                                  ",
"                                                  ",
"                                                  ",
" X   X   X   X   X   X   X   X   X   X   X   X   .",
"                                                  ",
"                                                  ",
"                                                  ",
" X   X   X   X   X   X   X   X   X   X   X   X   .",
"                                                  ",
"                                                  ",
"                                                  ",
" X   X   X   X   X   X   X   X   X   X   X   X   .",
"                                                  ",
"                                                  ",
"                                                  ",
" X   X   X   X   X   X   X   X   X   X   X   X   .",
"                                                  ",
"                                                  ",
"                                                  ",
" X   X   X   X   X   X   X   X   X   X   X   X   .",
"                                                  ",
"                                                  ",
"                                                  ",
" X   X   X   X   X   X   X   X   X   X   X   X   .",
"                                                  ",
"                                                  ",
"                                                  ",
" X   X   X   X   X   X   X   X   X   X   X   X   .",
"                                                  ",
"                                                  ",
"                                                  ",
" X   X   X   X   X   X   X   X   X   X   X   X   .",
"                                                  ",
"                                                  "
};
