/* XPM */
static char *b31abc2dd6d549aac99708ad9479b7bbOIENjxvt9MjANnVh[] = {
/* columns rows colors chars-per-pixel */
"50 50 2 1 ",
"  c #8A9F59",
". c #97B751",
/* pixels */
" .   .   .   .   .   .   .   .   .   .   .   .   .",
"                                                  ",
"                                                  ",
" .   .   .   .   .   .   .   .   .   .   .   .   .",
"                                                  ",
"                                                  ",
"                                                  ",
" .   .   .   .   .   .   .   .   .   .   .   .   .",
"                                                  ",
"                                                  ",
"                                                  ",
" .   .   .   .   .   .   .   .   .   .   .   .   .",
"                                                  ",
"                                                  ",
"                                                  ",
" .   .   .   .   .   .   .   .   .   .   .   .   .",
"                                                  ",
"                                                  ",
"                                                  ",
" .   .   .   .   .   .   .   .   .   .   .   .   .",
"                                                  ",
"                                                  ",
"                                                  ",
" .   .   .   .   .   .   .   .   .   .   .   .   .",
"                                                  ",
"                                                  ",
"                                                  ",
" .   .   .   .   .   .   .   .   .   .   .   .   .",
"                                                  ",
"                                                  ",
"                                                  ",
" .   .   .   .   .   .   .   .   .   .   .   .   .",
"                                                  ",
"                                                  ",
"                                                  ",
" .   .   .   .   .   .   .   .   .   .   .   .   .",
"                                                  ",
"                                                  ",
"                                                  ",
" .   .   .   .   .   .   .   .   .   .   .   .   .",
"                                                  ",
"                                                  ",
"                                                  ",
" .   .   .   .   .   .   .   .   .   .   .   .   .",
"                                                  ",
"                                                  ",
"                                                  ",
" .   .   .   .   .   .   .   .   .   .   .   .   .",
"                                                  ",
"                                                  "
};
