/* XPM */
static char *_9415e6c1cc04c4bec5115924573c98ccQPdCnF6XxzMK1ad[] = {
/* columns rows colors chars-per-pixel */
"50 50 52 1 ",
"  c None",
". c black",
"X c gray4",
"o c #111111",
"O c #131313",
"+ c gray10",
"@ c #1B1B1B",
"# c gray11",
"$ c #1D1D1D",
"% c gray12",
"& c #202020",
"* c #222222",
"= c #232323",
"- c #252525",
"; c gray15",
": c #272727",
"> c #282828",
", c gray16",
"< c gray17",
"1 c gray18",
"2 c gray19",
"3 c #323232",
"4 c gray24",
"5 c gray28",
"6 c gray29",
"7 c gray30",
"8 c #4E4E4E",
"9 c #505050",
"0 c #555555",
"q c #565656",
"w c #5A5A5A",
"e c #5B5B5B",
"r c #6A6A6A",
"t c #797979",
"y c gray48",
"u c #7E7E7E",
"i c #818181",
"p c #838383",
"a c gray52",
"s c #8B8B8B",
"d c #8D8D8D",
"f c #909090",
"g c gray59",
"h c #979797",
"j c gray60",
"k c gray61",
"l c gray66",
"z c gray67",
"x c #B1B1B1",
"c c gray73",
"v c gray74",
"b c #D0D0D0",
/* pixels */
"                                                  ",
"                                                  ",
"                                                  ",
"                     wwwwwwww                     ",
"                    yuurwwwwww                    ",
"                   wzbbdwwwwwww                   ",
"                  wwzbbdwwwwwwww                  ",
"                 wwwkccpwwwwwww8.                 ",
"                wwwwwwwwwwwwwww$XX                ",
"                >9wwwwwwwwwww6:oXX                ",
"                X50wwwwwwwww04XXXX                ",
"                XX$wwwwwwwwwoXXXXX                ",
"                88wyassuttty098888                ",
"                dkgkxvvzgkggkgfdff                ",
"                fgkgxvclkggkkgffff                ",
"                fggkxvvzgkkgkgffff                ",
"                fggkxvvlgkgkggdfff                ",
"                fkkgxvvzkgkgkgffff                ",
"                dggkxvclgkgkkgffff                ",
"                fgkgxvvlkgkgggffff                ",
"                fkgkzvvzkgkgkgffff                ",
"                dgkgxvclgkgkggffff                ",
"                fggkxvvzkgkgkgffff                ",
"                fkkgxvvzgkgkggffff                ",
"                dkkgxvclkgkgkgffff                ",
"                dggkxvvlgkgkggffff                ",
"                fkkgxvvzkgkgkgffff                ",
"                dggkxvclgkgkggffff                ",
"                fggkxvvlkgkgkgffff                ",
"                fkkgxvvzgkgkggffff                ",
"                dggkxvclkgkgkgffff                ",
"                fgkgxvvzgkgkggffff                ",
"                fkgkzvvlkgkgkgdfff                ",
"                dgkgxvvlgkgkggdfff                ",
"                dkgkxvvlkgkgkgffff                ",
"                dgkgxvvzgkgkkgffff                ",
"                fgkkxvclkgkgkgffff                ",
"                dgkgxvvlgkgkggffff                ",
"                fkkgxvvzkgkgkgdfff                ",
"                fggkxvclgkgkggffff                ",
"                fkgkzvvzkgkgkgffff                ",
"                dkkgxvclgkgkkgffff                ",
"                 >=+====$$+$+++$>                 ",
"                 3>=>11>::=:=::>2                 ",
"                dkgkxvclgkgkggdfff                ",
"                dkkgxvvlkgkgkgffff                ",
"                fggkxvvzgkgkkgffff                ",
"                                                  ",
"                                                  ",
"                                                  "
};
