/* XPM */
static char *_53d85f2dd1a4690dd1941f07c15190cxSrCbdP1wb1389ZK[] = {
/* columns rows colors chars-per-pixel */
"50 50 230 2 ",
"   c None",
".  c #010001",
"X  c #0C0206",
"o  c #0D0B0D",
"O  c #0F0409",
"+  c #14050D",
"@  c #1A060C",
"#  c #15090E",
"$  c #1C0B0E",
"%  c #100106",
"&  c #150D12",
"*  c #1B0C13",
"=  c #1A0A13",
"-  c #151115",
";  c #1E1114",
":  c #1C141A",
">  c #1B181B",
",  c #23090F",
"<  c #260E15",
"1  c #2C0A11",
"2  c #220F1A",
"3  c #2D0F18",
"4  c #231215",
"5  c #24151B",
"6  c #2A151B",
"7  c #23191D",
"8  c #2B1A1E",
"9  c #2A1415",
"0  c #33141C",
"q  c #3B151D",
"w  c #301A1F",
"e  c #3B1A1F",
"r  c #320E15",
"t  c #1D1A20",
"y  c #2A1621",
"u  c #251B23",
"i  c #2B1B22",
"p  c #261A24",
"a  c #351D24",
"s  c #3A1C24",
"d  c #3D1F28",
"f  c #301D29",
"g  c #2F2027",
"h  c #2D222A",
"j  c #27232A",
"k  c #332125",
"l  c #3A2126",
"z  c #34242C",
"x  c #3D232C",
"c  c #3A292E",
"v  c #36292B",
"b  c #332631",
"n  c #3A2632",
"m  c #352C34",
"M  c #3B2B35",
"N  c #3B2D39",
"B  c #342E3A",
"V  c #3A3137",
"C  c #3C313B",
"Z  c #353036",
"A  c #43161E",
"S  c #421B22",
"D  c #4A1920",
"F  c #571B24",
"G  c #43252B",
"H  c #4B242A",
"J  c #44292E",
"K  c #45242A",
"L  c #53252C",
"P  c #442A33",
"I  c #4B2C32",
"U  c #432E3A",
"Y  c #4B2C3B",
"T  c #422732",
"R  c #532D35",
"E  c #453135",
"W  c #4D3237",
"Q  c #45323B",
"!  c #4C333C",
"~  c #44383F",
"^  c #53343C",
"/  c #52393F",
"(  c #593538",
")  c #613039",
"_  c #652B34",
"`  c #3E3741",
"'  c #453341",
"]  c #4B3441",
"[  c #443B43",
"{  c #4B3A46",
"}  c #4C3A49",
"|  c #453B4E",
" . c #543B45",
".. c #593B43",
"X. c #563E4D",
"o. c #573944",
"O. c #633B44",
"+. c #6A3D4D",
"@. c #7D3B58",
"#. c #7D3E48",
"$. c #4B4248",
"%. c #55454B",
"&. c #5C434B",
"*. c #5B4549",
"=. c #4A4352",
"-. c #4D4856",
";. c #564354",
":. c #5B4352",
">. c #5C4C55",
",. c #544C5A",
"<. c #5C4A5B",
"1. c #564A54",
"2. c #5C505B",
"3. c #654446",
"4. c #63444B",
"5. c #69484E",
"6. c #624453",
"7. c #644B54",
"8. c #6A4C54",
"9. c #64455A",
"0. c #654B5A",
"q. c #6A4D5B",
"w. c #694555",
"e. c #784357",
"r. c #744B57",
"t. c #6C525B",
"y. c #68555C",
"u. c #74545C",
"i. c #745A5F",
"p. c #7F575F",
"a. c #5C5360",
"s. c #654D62",
"d. c #6B4E61",
"f. c #7F4F61",
"g. c #645363",
"h. c #6D5364",
"j. c #655B63",
"k. c #6F5964",
"l. c #6C596D",
"z. c #6A596C",
"x. c #745462",
"c. c #755B64",
"v. c #7C5B65",
"b. c #7D5E6A",
"n. c #785967",
"m. c #755B72",
"M. c #6D5A71",
"N. c #696169",
"B. c #7C636C",
"V. c #7B6C74",
"C. c #786779",
"Z. c #756D78",
"A. c #8A4256",
"S. c #874A64",
"D. c #805E6A",
"F. c #875664",
"G. c #975669",
"H. c #985C74",
"J. c #84626C",
"K. c #86636C",
"L. c #836472",
"P. c #8B6472",
"I. c #836A75",
"U. c #8B6B74",
"Y. c #836A79",
"T. c #8C6C7A",
"R. c #926C75",
"E. c #936D7B",
"W. c #956176",
"Q. c #8D727C",
"!. c #85737A",
"~. c #94737C",
"^. c #99727C",
"/. c #937276",
"(. c #97616C",
"). c #7B7482",
"_. c #796582",
"`. c #876A85",
"'. c #857B83",
"]. c #86738E",
"[. c #8B7987",
"{. c #957483",
"}. c #9A7683",
"|. c #957A85",
" X c #9C7A84",
".X c #967888",
"XX c #9C7B89",
"oX c #8D7F91",
"OX c #8B7995",
"+X c #947B96",
"@X c #A37E8C",
"#X c #A37D86",
"$X c #8E8189",
"%X c #9A838D",
"&X c #998088",
"*X c #9D8791",
"=X c #A2818B",
"-X c #AE898E",
";X c #A8858E",
":X c #A38292",
">X c #A98592",
",X c #AA8A95",
"<X c #A18A91",
"1X c #B18C94",
"2X c #AE939A",
"3X c #A9919B",
"4X c #B4969D",
"5X c #B7979C",
"6X c #9A8AA6",
"7X c #AA95A4",
"8X c #A999A3",
"9X c #BB9AA2",
"0X c #B49FA8",
"qX c #A898B7",
"wX c #AEA0A8",
"eX c #B6A3A9",
"rX c #B9A6B3",
"tX c #C2A5AC",
"yX c #C4AEBB",
"uX c #CAB3BB",
"iX c #D0BABF",
"pX c #B5A7C6",
"aX c #BFB1CF",
"sX c #C5B8C1",
"dX c #D4C3C9",
"fX c #DCC5CD",
"gX c #D0C7D0",
"hX c #CEC4CC",
"jX c #E3D7DB",
"kX c #EDE5E8",
/* pixels */
"                                                a a a a                                             ",
"                                      a a       a . . . a                                           ",
"                                      a t.a     a . . . a                                           ",
"                                      a I a       o . . a                                           ",
"                                        a  .a     a . a                                             ",
"                                a   a     a ,.a   a . a   -.            a a a a a                   ",
"  a a a a a                   a ,.1.' a   a 8 i a a . o   -.          a m.<.} C N a                 ",
"  a aXaX].].a a a             a X u B a   a * ; 4 ,.X . a             k ) U g M ! OXa               ",
"  a +X6XpXpXpXqX6Xf a a     a d Z.- n N f a.B h 5 y = % . a           a a Z.g.] U l.6Xa             ",
"    k `.].].].OX+X].m._.a a `.;.g.;.p i ' $Xp | 5 = 2 M X a       a a `.a a a g.W { h.a             ",
"      a a 6X].C.M.M.M.`.D.d.`.} ;.s.s.y 5 } # b N 5 = b 5 a     a M.m.C.a     a 6.^ h.a a a k a     ",
"          a a a OXs.+.d.d.X.d.X.' ' M n * * * 2 y y = + X ` a a   a z.M.a       a R d.a 4 &.!.a     ",
"                a a n.] y d :.9.X.' ] ] ] 6 @ y n n 2 + # qXB o a   a g.s.a     a R w.a a &.7.a     ",
"                    a r.@.' 7.X.] ] ] X.Y ] 6.] N ' } i y z.).Z a   a 0.<.a     a R O.a   s ^ a     ",
"                    a e.e.u.x.0.&.X.X.q.! U.X.Y ] f ' n b j ` j.j a   a X.] a   a Y a   k *...k     ",
"                    a P.T.q.x.7.>.V.x.L.Y.T.F.] ' n f N n C > > - # a   a P a   a S a a L.t./ B.a   ",
"              pXa a 7XXXq.<.n.b.{.B.k.k.c.~.&.W Y n n } N n B u b u a   a a k   a ^ a   a 6.K t.a   ",
"              a 2.7X7X7.7 0.B.,X XP.L.c.c.J.4.U P x Y } } M b C N C M a a 4 l a a ^ a     a S .Xa   ",
"              a '.7X$X1.~.T.L.@XE.T.T.L.c.J.J.4.l T a < U U ' C m C { M k 5 k z Q X.X.d     a v.a   ",
"              a V.rX%XL.{.T..X@XT.E.{.n.n.v.7.W G a < y x ! n i ' ;.} ] ! C 7 ; M a ] a     a A b.a ",
"    l a       a V.eX{.Y.T.L..X@X}.{.}.L.n.w.U.&.P a @ = a P n a d X.<. .] V Q h 7 ! P q.    a S S a ",
"    | a       a $X7XY.B.|.`.*X@X@XE.T.n.u.D./...a G 0.@ z :.h.G a I ..o.<.<.z k : 4 y S ^ :.x 0 1 G ",
"    >         a [.V.L.L.{..X:X>X}.@XL.b.J.p.^.5.s o.Y.* @ l.V.Y.n.Y I W Q :.} V k i x y d T x 0 1 1 ",
"    -         a j.n.L.{.:XT..X:X@XE.T.x.K.^.1XR 0 d XX%.9 a 7XyXyXT.s 6 P o. .W ! 5 l 0 3 ! x 6 < , ",
"  a C     a a m [ B.L.Y.@X.XXX:X=XJ.B.U.R.#X_ A H r x.a x.0 ! [. .P G J x a ! 8 w w l 0 q L.B.< $ @ ",
"  a =.  a oXV.N.Z.%.L.B..X:X{. X{.|.L.K.5.5.L _ 9Xq a   a |.0 8.J I !.J l U T 6 9 6 T 0 s s U f + + ",
"  a 0.  a j a.Z $.~ 6.T..X.X{. XXXU.^.K.5.r.F #.uXv.q f   a a e |.|.&X$.a ; 9 l a ; 9 l a , [ C # # ",
"  a V.a t 2.u > { 1.v.u.XXP.U. XL.U./.=X/.F.F.G.a a F s a   a a / ..W 4 ; 6 9 M $ $ ; 5 7 i v C 7 4 ",
"  a ` z.- 3Xo B ` # + w k ~.U./.~.u./.~.R.R.9Xa   a  XA ( a     ! K 4 ; 5 c { 8 6 $ # ; i 8 T <Xj.8 ",
"  k & p $.` t B b O = a   a 2X XK.J.v.U.R.@X-Xs     a J.s a     e 5...W l E c 6 4 ; ; 9 a a a a B.o ",
"a 5 = : & & t [ # ; k       a ~.U./.K.r.#X>X,Xa       a r.H a   a ( R a s a / 8  .v 9 v W a     k 9 ",
"a u & & & # i : # M a       a /.,XU.R.R.~.F.,Xa         a ( a   a K a     a <X~ l E v k w a     k k ",
"a * * & * * + z f & a       a a ~.B.K.=X5X^.#X,Xa         a H s   a       a B.! k c c g < G a       ",
"a i * # + + % 5 * a         fXa k <X=X/./.=XP.E.a           a O.a         a 7.W l k E J *.A q a     ",
"a i u = = = + + a               a 5X4X-X/.S.^.R.E.s           a           a *.K l J / / c.a A a     ",
"a i h * N = * i a               l /.G.a s F.S.^.}.rXa                     k K I ^ e / k a a H a     ",
"a M 6 ; C g V [ a a a           a ^.A.a   a @.W.=Xu.  a                   a K K     s / a   a K a a ",
"a c k ~ i m Z N.N.C a           s }.G.a     a @.#X%Xp.yXa                 a i.9     a ..a   a K L t.",
"a l w M >.i i y.'.> d             a H.a     a p.S.,X4Xb.2Xa               a Q.s     a W a     a *.a ",
"a / l { ~ i Q   a k               a G.a   a O.F.S.a f 9XD.a a a           a I.k     a ..a     a B.a ",
"e *.v $.v E i.a                   a H.9Xs r.a (.;Xa   a 4Xv.eXa           a i.a     a ^ a     a a a ",
"k I / %.k W a                     a W.>XF.5.a 5XdXa     a 2XJ.a           a u.e     a ..a           ",
"k e E *.^ ( a                     a P.}.w.T.a tXkX#Xa     a =Xa           a /.k     a 8.a           ",
"e k *.*.( 3.a                   a a E.b.w.a a 5XjXtXa a a a 2Xa kX        a %Xa     a 4.a           ",
"k k l ( 5.a a                 a wXsX*Xt.a     a >X,X1XtXtXuXuXa           a wXa     a P a           ",
"e *.W 3.3.a                 a gX8X  a '.a       a fXiXa a a a a           a $Xa     a G a           ",
"k 8.i.2Xa a                 a eXhXa V.$X  a       a uXk   a a a             a a     a G a           ",
"k 3.<Xe a                   a 8Xk   V.a 8Xa       a a     f Z.a                   a a Q a a         ",
"a 3.dXa                     a eXa   '.a '.1.    a ).~ a   a ,.a                   a =.P } a         ",
"a e a &X                    a a   a a   a =.z   a a %.a   a a a                     a a a a         "
};
