/* XPM */
static char *_c69b01ac156484b94b2300cd9b27eb28H8kqvwWGmwBmvYt[] = {
/* columns rows colors chars-per-pixel */
"50 50 136 2 ",
"   c None",
".  c black",
"X  c gray1",
"o  c #0B0A0F",
"O  c #101016",
"+  c #14141A",
"@  c #15141B",
"#  c #15141C",
"$  c #15151C",
"%  c #261413",
"&  c #211F2C",
"*  c #4B1F15",
"=  c #5B2B1E",
"-  c #562A28",
";  c #6F3924",
":  c #743A26",
">  c #793C28",
",  c #7B3D28",
"<  c #7D3E29",
"1  c #7F3E29",
"2  c #7F3F29",
"3  c #453B40",
"4  c #423B4D",
"5  c #4F454A",
"6  c #444159",
"7  c #44425C",
"8  c #4A445E",
"9  c #574F53",
"0  c #545152",
"q  c #5D5559",
"w  c #5F5459",
"e  c #5E5A5B",
"r  c #7D5141",
"t  c #605C5D",
"y  c #494360",
"u  c #494762",
"i  c #4B4764",
"p  c #4A4963",
"a  c #4B4965",
"s  c #4C4964",
"d  c #4C4965",
"f  c #4C4A65",
"g  c #4D4A65",
"h  c #4C4866",
"j  c #4C4966",
"k  c #4C4A66",
"l  c #4D4A66",
"z  c #4C4A67",
"x  c #4D4A67",
"c  c #4E4A67",
"v  c #4C4968",
"b  c #4D4A68",
"n  c #605F60",
"m  c #636062",
"M  c #656465",
"N  c #6A6869",
"B  c #6D6A6C",
"V  c #6D6B6C",
"C  c #6E6D6E",
"Z  c #6F6D6E",
"A  c #737171",
"S  c #787577",
"D  c #B12400",
"F  c #8F452F",
"G  c #85443C",
"H  c #934432",
"J  c #974731",
"K  c #9E4A35",
"L  c #A84D36",
"P  c #A84C3B",
"I  c #AC503C",
"U  c #B7533F",
"Y  c #D65F4A",
"T  c #D9624D",
"R  c #E0634B",
"E  c #E8664B",
"W  c #ED6750",
"Q  c #F66951",
"!  c #F66952",
"~  c #F46A53",
"^  c #F76B52",
"/  c #F76A54",
"(  c #F66B55",
")  c #F76C54",
"_  c #F96B52",
"`  c #F86B53",
"'  c #FB6B52",
"]  c #FB6B53",
"[  c #FD6B52",
"{  c #FC6B53",
"}  c #FE6B53",
"|  c #F86C52",
" . c #F86C53",
".. c #FB6C52",
"X. c #FB6C53",
"o. c #FA6D53",
"O. c #FD6C52",
"+. c #FC6D52",
"@. c #FD6D52",
"#. c #FC6C53",
"$. c #FD6C53",
"%. c #FC6D53",
"&. c #FD6D53",
"*. c #FE6C52",
"=. c #FE6C53",
"-. c #FF6C53",
";. c #FE6D53",
":. c #FF6D53",
">. c #F86A54",
",. c #F86B54",
"<. c #FB6B54",
"1. c #FB6A55",
"2. c #FA6B55",
"3. c #FB6B55",
"4. c #FC6B54",
"5. c #FD6B54",
"6. c #F86C54",
"7. c #F96C55",
"8. c #FA6C54",
"9. c #FB6C54",
"0. c #FB6D54",
"q. c #FB6C55",
"w. c #FC6C54",
"e. c #FD6C54",
"r. c #FC6D54",
"t. c #FD6D54",
"y. c #FC6C55",
"u. c #FC6D55",
"i. c #FE6C54",
"p. c #FF6C54",
"a. c #FE6D54",
"s. c #FF6D54",
"d. c #FC6C56",
"f. c #BCBCBC",
"g. c gray74",
"h. c gray86",
/* pixels */
"                                                                                                    ",
"                                                                                                    ",
"                                                                                                    ",
"                                                                                                    ",
"                                                                                                    ",
"                                                                                                    ",
"                                                                                                    ",
"                                                                                                    ",
"                                                                                                    ",
"                                                                                                    ",
"                                                                                                    ",
"                                              + o O + + + # # # +             . . . .               ",
"                                            + a p 7 p l l l l l +               . .                 ",
"            5 5 5 q                       + b i & + + + + b l l +                 .                 ",
"          5 M C A 5 3 5 9               + p u +         + l l +                   .                 ",
"        5 C g.g.g.C C C 5 5 t         + p p +           + b +                     .                 ",
"      5 m g.g.g.g.g.f.g.C C 5 1 1 1 1 1 < < < <         + l +                     .                 ",
"      5 m g.g.g.g.g.g.g.f.g.r T W 2.2./ X.X.$.E > F   + a +                       .                 ",
"      5 e g.g.g.g.g.g.g.g.1 ^ { s.s.. . s.s.s.$.X.$.- + a + = > 1 1               X                 ",
"      5 e g.g.g.g.g.g.g.1 R $.s.s.. . . h.$.X.$.^ $.+ l 6 + / s.s.s.1 1 1       X X                 ",
"        5 S g.g.g.g.g.1 Y s.4.4.s.. . . h.s.$.$.s.s.+ l + s.$.s.$.s.s.s.s.<   . X .                 ",
"          5 N B B g.g.1 _ s.s.s.s.. . h.h.s.s.$.$.$.$.% s._ 4.s.s.s.s.s.8.X.1 . .                   ",
"            5 5 5 0 1 2.$.$.8.8.) s.h.h.s.s.$.s.$.$.$.$.s.$.$.s.s.s.s.s.s.$.$.F 4 4 4               ",
"                  5 F $.8.$.s.s.s.s.s.s.s.X.$.s.s.s.s.s.s.s.s.s.s.s.s.s.s.s.s.s.1 l a 4             ",
"                    1 s._ X.* s.s.4.s.s.s.$.$.s.$.$.s.s.s.s.s.s.s.s.s.s.s.s.s.s.1 4 l a 4           ",
"                    1 1 s.* s.2.$.s.s.s.s.s.s.$.$.$.s.s.s.s.s.s.s.s.s.s.s.$.;.s.1   u l 4           ",
"                      1 * s.8.4.s.s.s.s.s.s.s.$.$.$.s.s.s.s.s.s.s.s.s.s.s.$.$.s.1   4 a 4           ",
"                      D 1 / s.s.s.s.s.s.s.s.s.s.s.$.s.s.s.s.s.s.s.s.s.s.s.$.$.s.1   4 l 4           ",
"                      1 s.8.s.s.s.s.s.s.s.s.s.s.s.s.s.s.s.s.s.s.s.s.s.s.s.$.s.s.1   4 l 4           ",
"                      1 s.8.s.s.s.s.s.s.s.s.s.s.s.s.s.$.$.s.s.s.s.s.s.s.s.s.s.s.1   4 a 4           ",
"                      1 1 8.$.s.s.s.s.s.s.s.s.s.s.s.s.{ { s.$.s.s.s.s.s.s.s.s.s.1   4 l 4           ",
"                        1 ~ $.$.s.s.s.s.$.$.s.$.$.s.s.{ { 4.$.s.s.s.s.s.s.8.s.1 4 4 l a 4           ",
"                          1 | s.s.s.s.$.s.s.s.s.8.4.s.{ { { $.$.s.s.s.s.s.^ 1 8 a z k 4 4           ",
"                        1 F U | $.X.$.2.s.s.s.s.8.s.{ $.$.{ $.$.$.s.s.s.s.s.G 4 4 4 4 4             ",
"                      1 s.s.I 1 $.2._ s.P s.s.8./ : 4.{ L { X.$.$.s.s.s.$.$.1                       ",
"                    1 s.s.1 1   : F s.H s.s.8.s.; s.4.s.> ^ 8.s.s.s.s.s.$.$.s.1                     ",
"                  1 s.s.1           1 K 2.s.s.1 1 1 s.X.$.J s.8.s.s.1 1 s.X.$.s.<                   ",
"                    1 1             1 s.$.s.1       1 1 1 1 s.s.s.1     1 s.) s.F                   ",
"                                  1 s.s.s.F                 1 s.s.1       1 1 s._ >                 ",
"                                1 s.s.$.>                     1 s.1           1 1                   ",
"                                1 s.s.1                         1                                   ",
"                                  1 1                                                               ",
"                                                                                                    ",
"                                                                                                    ",
"                                                                                                    ",
"                                                                                                    ",
"                                                                                                    ",
"                                                                                                    ",
"                                                                                                    ",
"                                                                                                    "
};
