/* XPM */
static char *ba977624d72e49619c1934a88ab28269brU62ZlRPy0KzOw4[] = {
/* columns rows colors chars-per-pixel */
"50 50 136 2 ",
"   c None",
".  c black",
"X  c gray1",
"o  c #0B0A0F",
"O  c #101016",
"+  c #14141A",
"@  c #15141B",
"#  c #15141C",
"$  c #15151C",
"%  c #261413",
"&  c #211F2C",
"*  c #4B1F15",
"=  c #5B2B1E",
"-  c #562A28",
";  c #6F3924",
":  c #743A26",
">  c #793C28",
",  c #7B3D28",
"<  c #7D3E29",
"1  c #7F3E29",
"2  c #7F3F29",
"3  c #453B40",
"4  c #423B4D",
"5  c #4F454A",
"6  c #444159",
"7  c #44425C",
"8  c #4A445E",
"9  c #574F53",
"0  c #545152",
"q  c #5D5559",
"w  c #5F5459",
"e  c #5E5A5B",
"r  c #7D5141",
"t  c #605C5D",
"y  c #494360",
"u  c #494762",
"i  c #4B4764",
"p  c #4A4963",
"a  c #4B4965",
"s  c #4C4964",
"d  c #4C4965",
"f  c #4C4A65",
"g  c #4D4A65",
"h  c #4C4866",
"j  c #4C4966",
"k  c #4C4A66",
"l  c #4D4A66",
"z  c #4C4A67",
"x  c #4D4A67",
"c  c #4E4A67",
"v  c #4C4968",
"b  c #4D4A68",
"n  c #605F60",
"m  c #636062",
"M  c #656465",
"N  c #6A6869",
"B  c #6D6A6C",
"V  c #6D6B6C",
"C  c #6E6D6E",
"Z  c #6F6D6E",
"A  c #737171",
"S  c #787577",
"D  c #B12400",
"F  c #8F452F",
"G  c #85443C",
"H  c #934432",
"J  c #974731",
"K  c #9E4A35",
"L  c #A84D36",
"P  c #A84C3B",
"I  c #AC503C",
"U  c #B7533F",
"Y  c #D65F4A",
"T  c #D9624D",
"R  c #E0634B",
"E  c #E8664B",
"W  c #ED6750",
"Q  c #F66951",
"!  c #F66952",
"~  c #F46A53",
"^  c #F76B52",
"/  c #F76A54",
"(  c #F66B55",
")  c #F76C54",
"_  c #F96B52",
"`  c #F86B53",
"'  c #FB6B52",
"]  c #FB6B53",
"[  c #FD6B52",
"{  c #FC6B53",
"}  c #FE6B53",
"|  c #F86C52",
" . c #F86C53",
".. c #FB6C52",
"X. c #FB6C53",
"o. c #FA6D53",
"O. c #FD6C52",
"+. c #FC6D52",
"@. c #FD6D52",
"#. c #FC6C53",
"$. c #FD6C53",
"%. c #FC6D53",
"&. c #FD6D53",
"*. c #FE6C52",
"=. c #FE6C53",
"-. c #FF6C53",
";. c #FE6D53",
":. c #FF6D53",
">. c #F86A54",
",. c #F86B54",
"<. c #FB6B54",
"1. c #FB6A55",
"2. c #FA6B55",
"3. c #FB6B55",
"4. c #FC6B54",
"5. c #FD6B54",
"6. c #F86C54",
"7. c #F96C55",
"8. c #FA6C54",
"9. c #FB6C54",
"0. c #FB6D54",
"q. c #FB6C55",
"w. c #FC6C54",
"e. c #FD6C54",
"r. c #FC6D54",
"t. c #FD6D54",
"y. c #FC6C55",
"u. c #FC6D55",
"i. c #FE6C54",
"p. c #FF6C54",
"a. c #FE6D54",
"s. c #FF6D54",
"d. c #FC6C56",
"f. c #BCBCBC",
"g. c gray74",
"h. c gray86",
/* pixels */
"                                                                                                    ",
"                                                                                                    ",
"                                                                                                    ",
"                                                                                                    ",
"                                                                                                    ",
"                                                                                                    ",
"                                                                                                    ",
"                                                                                                    ",
"                                                                                                    ",
"                                                                                                    ",
"                                                                                                    ",
"              . . . .             + $ $ $ + + + O o +                                               ",
"                . .               + h x x h h p 7 p p +                                             ",
"                .                 + x x c + + + + & h v +                       q 5 5 5             ",
"                .                   + x h +         + u p +               9 5 3 5 A C M 5           ",
"                .                     + v +           + p p +         t 5 5 C C C g.g.g.C 5         ",
"                .                     + h +         2 2 2 2 2 2 2 2 2 5 C C f.f.g.g.g.g.g.n 5       ",
"                .                       + a +   2 2 E ....) / ^ 2.W T r g.f.f.f.g.g.g.g.g.m 5       ",
"                .               2 2 , = + a + - s.s.2...s.s.. . s.s...^ 2 f.f.f.g.g.g.g.g.t 5       ",
"                X X       2 2 2 s.s.s.) + 6 a + s.2.-.-.s.h.. . . s.s...T F f.f.g.g.g.g.g.e 5       ",
"                . X X   2 s.s.s.s.} 5.-.s.+ a + -.2.2...s.h.. . . s.-.s.5.Y 2 g.g.g.g.g.S 5         ",
"                  . . F ..2.s.s.s.s.s.s.^ s.% s.a.-.-.s.s.h.h.. . s.-.s.5.3.2 g.g.B B N 5           ",
"              4 4 4 2 ' -.s.s.s.s.s.s.-.-.s...-.-.-.s.-.s.s.h.h.s.) ) 2.} -.5.2 0 5 5 5             ",
"            4 a a 2 s.s.s.s.s.s.s.s.s.s.s.s.s.s.a.a.-.-.2.s.s.s.s.s.-.-.-.2.5.2 5                   ",
"          4 h h 4 2 s.s.s.s.s.s.s.s.s.s.s.s.s.s.-.-.s.-.-.2.-.a.s.2.s.* ) ..5.2                     ",
"          4 h u   2 s.-.-.s.s.s.s.s.s.s.s.s.s.s.-.-.s.s.s.s.a.a.s.....s.* -.2 2                     ",
"          4 h 4   2 s.-.-.s.s.s.s.s.s.s.s.s.s.s...-...s.a.a.a.a.s.s.-.2.s.* 2                       ",
"          4 x 4   2 s.-.-.s.s.s.s.s.s.s.s.s.s.s.s.s.s.s.a.a.a.a.s.s.s.s.) 2 D                       ",
"          4 x 4   2 s.5.-.s.s.s.s.s.s.s.s.s.s.s.a.a.a.a.a.a.a.a.s.s.s.s.5.s.2                       ",
"          4 f 4   2 s.s...s.s.s.s.s.s.s.s.-...s.a.a.a.a.a.a.a.a.s.s.s.s.2.5.2                       ",
"          4 f 4   2 s.s.s.s.s.s.s.s.s.s.s.} -.s.a.a.a.a.a.a.a.a.s.s.-.-.2.F 2                       ",
"          4 f f 4 4 2 s.2.s.s.s.s.s.s.-.3...-.s.s.-.-.a.-.-.a.a.s...-.} ~ :                         ",
"          4 4 x f x 8 2 ^ s.s.s.s.s.s.s.3.' -.-.3.-.s.2.5.s.s.-.s.s.2.) 2                           ",
"            4 4 4 4 4 G 2.s.s.s.s.-.-...' -.-.3.-.2.s.-.s.s.3.} s...) U F 2                         ",
"                      2 ..s.s.s.s.-.-.-...L } 3.: ) 2.&.s.P s.} 2.-.1 I 5.s.2                       ",
"                    2 s.-.-.s.s.s.s...2.^ , 3...s.; a.a.s.s.H 5.2 2   1 2 s.s.2                     ",
"                  2 s.' ) s.2 2 5.s.3.s.J s...5.2 2 2 s.s.3.K 2           2 s.s.2                   ",
"                  2 s./ -.2     2 s.s.s.2 2 2 2       2 s.-.s.2             2 2                     ",
"                2 s.s.2 2       2 5.s.2                 2 s.s.s.2                                   ",
"                  2 2           2 s.2                     2 s.s.s.2                                 ",
"                                  2                         2 s.s.2                                 ",
"                                                              2 2                                   ",
"                                                                                                    ",
"                                                                                                    ",
"                                                                                                    ",
"                                                                                                    ",
"                                                                                                    ",
"                                                                                                    ",
"                                                                                                    ",
"                                                                                                    "
};
