/* XPM */
static char *b872442199c64753866a40ef0de07f44mPJiGW34rtsCyWrj[] = {
/* columns rows colors chars-per-pixel */
"50 50 13 1 ",
"  c None",
". c #4B261D",
"X c #6C3F34",
"o c #6F5048",
"O c #84564B",
"+ c #856158",
"@ c #93675C",
"# c #9C7369",
"$ c #A6786D",
"% c #AB7B6F",
"& c #B37F72",
"* c #BB8376",
"= c #E1A190",
/* pixels */
"                                                  ",
"                                                  ",
"                    XXXXXXX                       ",
"                   X====***XXX                    ",
"                  X======*****X                   ",
"                 X=========***=X                  ",
"                X===============X                 ",
"              XX=================X                ",
"             X====================X               ",
"             X====================X               ",
"            X======================X              ",
"            X======================X              ",
"            X======================*X             ",
"            X====================****XX           ",
"            Xoo=================*******X          ",
"           Xooo=================********X         ",
"           X##o=================********oX        ",
"          X#####***=============********ooX       ",
"         X=######***===========*********oooX      ",
"        X==#######**##=========*********ooooX     ",
"       X===#############======**********ooooX     ",
"     XX======############=====*********oooo**X    ",
"    X===========#########oooo**********oooo***X   ",
"   X==============#######oooo**********ooo*****X  ",
"  X===================###oooo######***ooo*******X ",
" X=====================#ooooo##########=********X ",
"X=======================ooooo#########===========X",
"X========================ooo#########============X",
".@@=======================oo########=============X",
".@@=======================o########==============X",
".@@@======================########==============o.",
".@@@##===================#########==============o.",
".@@@##===================#######===============oo.",
".@@@###*================*#####================ooo.",
".@@@###oo=============**&####===============#oooo.",
" .@@###ooO===========***$####==============##oooo.",
" .@@###ooo###=======***%####=============####oooo.",
"  .@##ooooo###########o+####============#####oooo.",
"   .##ooooo###########oo##=============######ooo. ",
"    .#ooooo##########ooo===============######ooo. ",
"    .#oooo###########ooo============ooo######ooo. ",
"     .oooo###########ooo========ooooooo######ooo. ",
"     .oooo###########ooo==**==##ooooooo######ooo. ",
"     .oooo##########oooo****####oooooo#######ooo. ",
"     .oooo########ooooo#########oooooo#######ooo. ",
"      .ooo########ooooo#########ooooo########ooo. ",
"       .oo######ooooooo#########oooo#########oo.  ",
"        .o######ooooooo########ooooo########...   ",
"         .######ooooooo########oooo#######..      ",
"          ................................        "
};
