/* XPM */
static char *_7822d33dddc4d09ea4f308c70b905fbhyvPZ5SgdT6kqkO9[] = {
/* columns rows colors chars-per-pixel */
"50 50 3 1 ",
"  c None",
". c black",
"X c red",
/* pixels */
"...                                               ",
"...                                              .",
"...  XXXXXXX                                     .",
"    X      XXX                                   .",
"   X          XX                                 .",
"  X             XX                               .",
"  X               XX                             .",
"  X  ......         X                            .",
" X                   XX                          .",
" X                     X                         .",
" X                      X                        .",
" X                       X                       .",
" X    ..........          X                      .",
" X....  .                  X                     .",
" X      .                   X                    .",
" X      .                    X                   .",
" X      .                    XX                  .",
" X     .                      X                  .",
" X     .                       X                 .",
" X     .                       XX                .",
" X     .                        X                .",
" X    .           .........      X               .",
"  X   .                   .      X               .",
"  X  .                   .        X              .",
"  X  .                  .         X              .",
"   X.                  .           X             .",
"   X                  .            X             .",
"    X                .              X            .",
"    X               .  .            X            .",
"     X             .    .           X            .",
"     X            .     .         .  X           .",
"      X         ..       .        .  X           .",
"      X        .          .       .  X           .",
"       X                  .       .  X           .",
"       X                   .      .   X          .",
"        X                   .     .   X          .",
"        X                         .   X          .",
"         X                        ..   X         .",
"         X                        . .  X         .",
"         X                        .  . X         .",
"          X                       .  . X         .",
"          X                       .   .X         .",
"           X                      .    X         .",
"           XX                     .    X         .",
"            XX                    .    X         .",
"             XX                   .    X         .",
"               XXXX  X                 X         .",
"...                XXXXXXX            X          .",
"...                   X              X           .",
"...                    XXXXXXX    XXX           .."
};
